<svg xmlns="http://www.w3.org/2000/svg" viewBox="0 0 281 97"><defs><style>.cls-1{fill:#fff;}</style></defs><g id="Layer_2" data-name="Layer 2"><g id="Layer_1-2" data-name="Layer 1"><g id="Layer_2-2" data-name="Layer 2"><g id="Layer_1-2-2" data-name="Layer 1-2"><path class="cls-1" d="M275,65.27V62.16h-1.18v-.5h2.91v.5h-1.18v3.11Z"/><path class="cls-1" d="M277.68,62.51v2.76h-.51V61.66h.68l1.21,2.93,1.21-2.93H281v3.61h-.51V62.5l-1.15,2.77h-.47Z"/><path class="cls-1" d="M88.1,61.45a9.64,9.64,0,0,1,7.79,3.78A14.24,14.24,0,0,1,99,74.59,14.27,14.27,0,0,1,95.89,84a9.68,9.68,0,0,1-7.79,3.77,8.57,8.57,0,0,1-5.76-2.08A12,12,0,0,1,78.79,80V97H72.17V62h6.62v7.2a12,12,0,0,1,3.55-5.66A8.58,8.58,0,0,1,88.1,61.45ZM85.7,81.69a5.93,5.93,0,0,0,4.55-2,7.76,7.76,0,0,0,0-10.1,6,6,0,0,0-4.55-2,6.6,6.6,0,0,0-5,2,6.92,6.92,0,0,0-2,5,7,7,0,0,0,2,5.07A6.58,6.58,0,0,0,85.7,81.69Z"/><path class="cls-1" d="M115.49,61.45A12.67,12.67,0,0,1,125.71,66a12.93,12.93,0,0,1,2.81,10.9H109a7,7,0,0,0,6.91,5.1,6.66,6.66,0,0,0,6.27-3.53L127.64,81a12.82,12.82,0,0,1-4.83,4.92,13.55,13.55,0,0,1-7.08,1.84,13.13,13.13,0,0,1-9.65-22.48A12.91,12.91,0,0,1,115.49,61.45Zm0,5.69a6.42,6.42,0,0,0-3.95,1.3,6.77,6.77,0,0,0-2.42,3.45h12.79a6.88,6.88,0,0,0-2.4-3.45A6.47,6.47,0,0,0,115.49,67.14Z"/><path class="cls-1" d="M145.28,61.45A12.67,12.67,0,0,1,155.5,66a13,13,0,0,1,2.82,10.9H138.81a7,7,0,0,0,6.91,5.1A6.64,6.64,0,0,0,152,78.51L157.43,81a12.87,12.87,0,0,1-4.82,4.92,13.65,13.65,0,0,1-7.08,1.84,13.15,13.15,0,0,1-9.71-22.48A12.89,12.89,0,0,1,145.28,61.45Zm0,5.69a6.37,6.37,0,0,0-3.94,1.3,6.73,6.73,0,0,0-2.43,3.45H151.7a6.88,6.88,0,0,0-2.4-3.45A6.47,6.47,0,0,0,145.28,67.14Z"/><path class="cls-1" d="M169.49,62v6.56c.81-3.07,2.08-5.11,3.79-6.12a6.63,6.63,0,0,1,5.66-.54v6.27c-2.67-.91-4.9-.87-6.71.12a5.1,5.1,0,0,0-2.74,4.83V87.23h-6.62V62Z"/><path class="cls-1" d="M189.18,87.23h-6.61V51h6.61Z"/><path class="cls-1" d="M206.78,61.45A12.66,12.66,0,0,1,217,66a12.9,12.9,0,0,1,2.82,10.9h-19.5a7,7,0,0,0,6.91,5.1,6.66,6.66,0,0,0,6.27-3.53L218.93,81a12.82,12.82,0,0,1-4.83,4.92,13.59,13.59,0,0,1-7.1,1.8,13.11,13.11,0,0,1-9.68-22.44A12.89,12.89,0,0,1,206.78,61.45Zm0,5.69a6.42,6.42,0,0,0-3.95,1.3,6.66,6.66,0,0,0-2.42,3.45h12.78a6.68,6.68,0,0,0-2.4-3.45A6.44,6.44,0,0,0,206.78,67.14Z"/><path class="cls-1" d="M222.9,80.42l6.61-1.37c.3,2.28,1.8,3.43,4.51,3.43a6.07,6.07,0,0,0,3.23-.76,2.21,2.21,0,0,0,1.23-1.89,1.93,1.93,0,0,0-1.1-1.71,7,7,0,0,0-2.75-.84,36,36,0,0,1-3.57-.63,27.84,27.84,0,0,1-3.58-1.08,5.91,5.91,0,0,1-2.75-2.21,6.65,6.65,0,0,1-1.1-3.92,6.93,6.93,0,0,1,3-5.71A11.81,11.81,0,0,1,234,61.45a12.73,12.73,0,0,1,7.35,2,7.72,7.72,0,0,1,3.43,5.32l-6.57,1.37c-.32-2.29-1.73-3.43-4.21-3.43a4.82,4.82,0,0,0-2.67.68,2.07,2.07,0,0,0-1,1.77,1.94,1.94,0,0,0,1.1,1.76,7,7,0,0,0,2.74.84,30.89,30.89,0,0,1,3.58.66,29.61,29.61,0,0,1,3.58,1.1A5.9,5.9,0,0,1,244,75.74a7,7,0,0,1-2.12,9.67h0a13.26,13.26,0,0,1-7.89,2.3,13.46,13.46,0,0,1-7.62-2A7.7,7.7,0,0,1,222.9,80.42Z"/><path class="cls-1" d="M247.45,80.42l6.61-1.37c.3,2.28,1.8,3.43,4.51,3.43a6.07,6.07,0,0,0,3.23-.76,2.23,2.23,0,0,0,1.2-1.89,1.93,1.93,0,0,0-1.1-1.71,7,7,0,0,0-2.75-.84,36,36,0,0,1-3.57-.63A27.84,27.84,0,0,1,252,75.57a5.91,5.91,0,0,1-2.75-2.21,6.65,6.65,0,0,1-1.1-3.92,6.93,6.93,0,0,1,3-5.71,11.77,11.77,0,0,1,7.42-2.28,12.73,12.73,0,0,1,7.35,2,7.72,7.72,0,0,1,3.43,5.32l-6.57,1.37c-.32-2.29-1.73-3.43-4.21-3.43a4.82,4.82,0,0,0-2.67.68,2.06,2.06,0,0,0-1.05,1.77,1.94,1.94,0,0,0,1.1,1.76,7,7,0,0,0,2.74.84,30.89,30.89,0,0,1,3.58.66,29.61,29.61,0,0,1,3.58,1.1,5.82,5.82,0,0,1,2.74,2.23,7,7,0,0,1-2.12,9.67h0a13.26,13.26,0,0,1-7.89,2.3,13.46,13.46,0,0,1-7.62-2A7.67,7.67,0,0,1,247.45,80.42Z"/><path class="cls-1" d="M73.18,9.91h0L54.19,0l-19,9.81h0V30.06h0v9.46L30,36.88l-11-5.7L.06,41,0,63.21,19,73.63,37.76,63.44V53.85h0L54,62.73,73,52.4h0L92,42.07l.06-22.24ZM16.23,69,2.76,61.58v-16L16.27,53ZM37.91,14.46l13.3,7.31L37.87,28.64ZM51.29,58.07,37.82,50.72v-16l13.47,7.4Z"/></g></g></g></g></svg>